<svg xmlns="http://www.w3.org/2000/svg" width="256" height="350" viewBox="0 0 256 350">
  <defs>
    <style>
      .cls-1 {
        fill: #da4822;
        fill-rule: evenodd;
      }
    </style>
  </defs>
  <path class="cls-1" d="M349.7,2488.99H150.277c-15.6,0-28.291-13.71-28.291-30.56V2169.56c0-16.85,12.691-30.56,28.291-30.56H349.7c15.6,0,28.291,13.71,28.291,30.56v288.87C377.99,2475.28,365.3,2488.99,349.7,2488.99ZM150.277,2144.58c-12.754,0-23.128,11.21-23.128,24.98v288.87c0,13.77,10.374,24.98,23.128,24.98H349.7c12.751,0,23.128-11.21,23.128-24.98V2169.56c0-13.77-10.377-24.98-23.128-24.98H150.277Zm195.872,80.18H153.827v-55.08H346.149v55.08Zm-187.159-5.58h182v-43.92h-182v43.92Zm-6.976,48.45H140.579v-11.15h11.435v11.15Zm20.739,0H161.318v-11.15h11.435v11.15Zm20.738,0H182.056v-11.15h11.435v11.15Zm20.738,0H202.794v-11.15h11.435v11.15Zm20.738,0H223.533v-11.15h11.434v11.15Zm20.739,0H244.271v-11.15h11.435v11.15Zm20.739,0H265.009v-11.15h11.436v11.15Zm20.738,0H285.748v-11.15h11.435v11.15Zm20.738,0H306.487v-11.15h11.434v11.15Zm20.739,0H327.225v-11.15H338.66v11.15Zm20.738,0H347.963v-11.15H359.4v11.15ZM193.41,2337.7H152.75v-40.21h40.66v40.21Zm-35.5-5.58h30.334v-29.05H157.913v29.05Zm86.77,5.58h-40.66v-40.21h40.66v40.21Zm-35.5-5.58H239.52v-29.05H209.187v29.05Zm86.768,5.58H255.3v-40.21h40.659v40.21Zm-35.5-5.58h30.333v-29.05H260.459v29.05Zm86.769,5.58H306.569v-40.21h40.659v40.21Zm-35.5-5.58h30.333v-29.05H311.732v29.05ZM193.41,2393.48H152.75v-40.21h40.66v40.21Zm-35.5-5.58h30.334v-29.05H157.913v29.05Zm86.77,5.58h-40.66v-40.21h40.66v40.21Zm-35.5-5.58H239.52v-29.05H209.187v29.05Zm86.768,5.58H255.3v-40.21h40.659v40.21Zm-35.5-5.58h30.333v-29.05H260.459v29.05Zm86.769,5.58H306.569v-40.21h40.659v40.21Zm-35.5-5.58h30.333v-29.05H311.732v29.05ZM193.41,2449.71H152.75v-40.2h40.66v40.2Zm-35.5-5.57h30.334v-29.05H157.913v29.05Zm86.77,5.57h-40.66v-40.2h40.66v40.2Zm-35.5-5.57H239.52v-29.05H209.187v29.05Zm86.768,5.57H255.3v-40.2h40.659v40.2Zm-35.5-5.57h30.333v-29.05H260.459v29.05Zm86.769,5.57H306.569v-40.2h40.659v40.2Zm-35.5-5.57h30.333v-29.05H311.732v29.05Z" transform="translate(-122 -2139)"/>
</svg>
