<svg xmlns="http://www.w3.org/2000/svg" width="29" height="30" viewBox="0 0 29 30">
  <defs>
    <style>
      .cls-1 {
        fill: #393939;
        fill-rule: evenodd;
      }
    </style>
  </defs>
  <path id="instagram" class="cls-1" d="M1522.27,11018h-21.56a3.787,3.787,0,0,0-3.72,3.9v22.3a3.763,3.763,0,0,0,3.72,3.8h21.56a3.763,3.763,0,0,0,3.72-3.8v-22.3A3.787,3.787,0,0,0,1522.27,11018Zm-5.46,4.7a1.343,1.343,0,0,1,1.31-1.4h3.28a1.341,1.341,0,0,1,1.3,1.4v3.2a1.341,1.341,0,0,1-1.3,1.4h-3.28a1.343,1.343,0,0,1-1.31-1.4v-3.2Zm-5.29,4.4a5.85,5.85,0,1,1-5.82,5.8A5.823,5.823,0,0,1,1511.52,11027.1Zm11.19,16.3a1.214,1.214,0,0,1-1.15,1.2h-20.19a1.223,1.223,0,0,1-1.16-1.2v-12.7h2.67a9.179,9.179,0,0,0-.38,2.6,9.02,9.02,0,0,0,18.04,0,9.179,9.179,0,0,0-.38-2.6h2.55v12.7Z" transform="translate(-1497 -11018)"/>
</svg>
