<svg xmlns="http://www.w3.org/2000/svg" width="332" height="353" viewBox="0 0 332 353">
  <defs>
    <style>
      .cls-1 {
        fill: #da4822;
        fill-rule: evenodd;
      }
    </style>
  </defs>
  <path class="cls-1" d="M284,5113a8.925,8.925,0,0,1-2.582,3.69c-2.036,1.54-4.209,2.35-6.646,1.29-2.381-1.04-3.9-2.09-4.772-4.98C269.946,5112.97,284,5112.98,284,5113Zm-7.132,265.99H233.319a6.7,6.7,0,0,1-6.441-5.7,46.266,46.266,0,0,1-.377-5.36c-0.043-9.44-.062-18.88,0-28.31a2.962,2.962,0,0,0-1.563-2.88c-9.033-5.72-17.777-11.81-25.2-19.62-15.527-16.35-25.728-35.53-29.463-57.78-1.34-7.98-1.114-16.3-.952-24.45,0.379-19.09,6.469-36.51,16.972-52.27,16.246-24.38,38.545-40.23,67.172-47.04,10-2.38,20.01-2.51,30.178-2.04a93.784,93.784,0,0,1,32.073,6.72q54.026,22.5,67.326,79.7c2.376,10.3,2.461,20.92,1.461,31.35-3.17,33.08-18.562,59.29-45.406,78.73-3.325,2.41-6.788,4.63-10.248,6.85a2.631,2.631,0,0,0-1.358,2.57q0.065,13.47,0,26.92c-0.008,1.99-.265,3.98-0.249,5.97,0.024,2.9-1.976,4.53-3.785,6.24a3.269,3.269,0,0,1-2.048.39Q299.14,5379.01,276.868,5378.99Zm36.253-14.5c0-.85,0-1.51,0-2.16,0.042-8.77-.01-17.55.159-26.32,0.143-7.43.454-7.81,6.938-11.2a88.8,88.8,0,0,0,29.963-25.09c17.4-22.84,24.056-48.41,18.576-76.82-4.62-23.95-17.3-43.07-36.689-57.28-21.9-16.05-46.622-21.4-73.411-16.21-23.135,4.49-41.741,16.52-56.025,35.03-16.706,21.65-22.537,46.41-17.72,73.21,5.419,30.15,22.385,52.33,48.979,67.23a28.712,28.712,0,0,1,4.813,3.13A5.109,5.109,0,0,1,240.3,5331a67.036,67.036,0,0,1,.466,7.95c0.076,7.78.068,15.55,0.093,23.33,0,0.71,0,1.42,0,2.21h72.263Zm-36.129,72.43c-14.519,0-29.038-.09-43.555.07-3.493.04-4.905-2.16-6.269-4.53-1.412-2.46-.769-4.88.909-7.05a7.246,7.246,0,0,1,6.349-3.06q43.057,0.225,86.116.03c3.42-.02,4.758,2.17,6.172,4.39s1.011,4.59-.454,6.74a7.059,7.059,0,0,1-6.51,3.51C305.5,5436.8,291.245,5436.92,276.992,5436.92Zm-0.07-28.89c-14.507,0-29.015-.09-43.52.08-3.334.04-4.643-2.12-6.064-4.26a5.7,5.7,0,0,1,.174-6.57c1.563-2.4,3.393-3.87,6.72-3.85q43.122,0.24,86.245.02c3.5-.02,4.9,2.14,6.3,4.49,1.445,2.45.82,4.87-.82,7.05a7.067,7.067,0,0,1-6.307,3.14C305.407,5407.92,291.163,5408.03,276.922,5408.03Zm0.114,57.87c-9.74,0-19.483-.13-29.218.08-3.433.07-4.763-2.19-6.149-4.42-1.435-2.31-.965-4.75.628-6.89a7.218,7.218,0,0,1,6.421-3.32c19.147,0.19,38.3.1,57.445,0.1,4.817,0,8.448,5.74,6.184,10.03-1.406,2.67-3.2,4.63-6.889,4.52C295.991,5465.71,286.511,5465.9,277.036,5465.9ZM132.694,5234.54c4.967,0,9.934.05,14.9-.02,3.719-.05,6.67,3.98,6.645,6.92-0.028,3.44-2.83,6.92-6.334,6.97q-15.3.255-30.6,0c-3.605-.06-6.429-3.61-6.309-7.16a7,7,0,0,1,6.6-6.68C122.626,5234.44,127.661,5234.54,132.694,5234.54Zm288.733-.01c4.966,0.01,9.933.07,14.9-.01,3.842-.06,6.725,4.15,6.68,6.88-0.059,3.55-2.87,6.99-6.487,7.04q-15.1.21-30.2,0.01c-3.6-.05-6.538-3.46-6.586-6.96-0.04-2.97,2.934-7.06,6.8-6.98C411.492,5234.61,416.46,5234.53,421.427,5234.53ZM164.938,5121.6c1.595,0.83,3.5,1.34,4.731,2.54,6.895,6.7,13.664,13.53,20.393,20.4,2.114,2.16,2.868,4.79,1.325,7.65-1.425,2.65-3.6,4.35-6.694,4.13a6.878,6.878,0,0,1-3.731-1.55c-3.218-2.76-6.329-5.66-9.341-8.65-3.769-3.73-7.429-7.58-11.075-11.44-1.566-1.66-2.78-3.51-2.664-6C158.08,5124.44,160.444,5122.08,164.938,5121.6Zm223.533,0.39c3.323,0.18,5.552.78,6.719,3.15,1.239,2.52,1.424,5.15-.25,7.56a31.579,31.579,0,0,1-3.589,4.25q-8.283,8.325-16.677,16.54c-2.2,2.14-4.65,3.8-8,2.47-4.65-1.84-6.207-6.9-3.171-10.85a57.532,57.532,0,0,1,5.033-5.63q7.533-7.53,15.206-14.92C385.272,5123.09,387.01,5121.81,388.471,5121.99ZM157.483,5353.74c0.792-1.55,1.271-3.41,2.428-4.6,6.793-6.99,13.651-13.92,20.676-20.67,4.763-4.58,11-.15,11.38,4.35a7.517,7.517,0,0,1-1.339,4.74,75.527,75.527,0,0,1-6.895,7.7c-4.342,4.38-8.769,8.68-13.217,12.96-2.139,2.05-4.561,3.36-7.726,2.5C159.524,5359.84,157.87,5357.66,157.483,5353.74Zm239,0.19c-0.437,2.75-1.175,4.99-3.6,6.17-2.524,1.23-5.22,1.48-7.5-.42-3.048-2.54-5.993-5.23-8.791-8.05-4.435-4.47-8.842-8.98-13.01-13.7-2.711-3.07-2.356-6.2.433-9.04s6.234-3.33,9.173-.53c7.195,6.85,14.167,13.95,21.09,21.08C395.387,5350.58,395.771,5352.42,396.487,5353.93ZM279.8,5161.96c21.877,1.22,40.492,9.59,55.43,25.75a77.275,77.275,0,0,1,20.563,45.17,54.883,54.883,0,0,1,.325,9.12,7.05,7.05,0,0,1-6.885,6.68c-3.522.07-6.4-2.47-6.955-6.35-0.488-3.42-.736-6.86-1.182-10.28-1.7-13-7.331-24.13-16.129-33.71-9.136-9.95-19.893-17.29-33.274-20.14-4.322-.91-8.763-1.27-13.15-1.88-0.785-.1-1.578-0.17-2.355-0.32-4.2-.81-6.572-3.55-6.358-7.31,0.2-3.58,3.373-6.48,7.386-6.72C278.074,5161.92,278.938,5161.96,279.8,5161.96Z" transform="translate(-111 -5113)"/>
</svg>
