<svg xmlns="http://www.w3.org/2000/svg" width="240.062" height="396.5" viewBox="0 0 240.062 396.5">
  <defs>
    <style>
      .cls-1 {
        fill: #da4822;
        fill-rule: evenodd;
      }
    </style>
  </defs>
  <path id="_" data-name="?" class="cls-1" d="M282.892,10658.8l1.066-16.3q2.928-26.1,23.179-45.6l21.58-20.5q25.309-24.6,35.435-44.7a93.971,93.971,0,0,0,10.125-42.8q0-49.95-31.172-77.2c-20.782-18.2-50-27.4-87.655-27.4q-55.95,0-88.321,28.8t-32.9,79.8h77.264c0.354-14.3,4.484-25.4,12.389-33.5s18.425-12.2,31.572-12.2c27.708,0,41.563,15.1,41.563,45.1a54.479,54.479,0,0,1-7.993,28.4q-7.994,13.5-32.1,35-24.116,21.45-33.17,43.6c-6.041,14.7-9.059,34.6-9.059,59.5h68.206Zm-64.076,110.6q11.852,11.4,31.305,11.4t31.3-11.4c7.9-7.6,11.857-17.3,11.857-29,0-11.8-4.043-21.6-12.123-29.3s-18.429-11.6-31.039-11.6-22.958,3.9-31.039,11.6-12.122,17.5-12.122,29.3C206.96,10752.1,210.91,10761.8,218.816,10769.4Z" transform="translate(-134.219 -10384.3)"/>
</svg>
