<svg xmlns="http://www.w3.org/2000/svg" width="207" height="355" viewBox="0 0 207 355">
  <defs>
    <style>
      .cls-1 {
        fill: #da4822;
        fill-rule: evenodd;
      }
    </style>
  </defs>
  <path class="cls-1" d="M391.99,7113.81a3.093,3.093,0,0,0-3.115-2.81h-71.03a6.07,6.07,0,0,0-6.061,6.08v150.83H294.557v-15.43a13.63,13.63,0,0,0-1.729-6.76c-2.721-4.78-6.9-5.41-10.365-4.87a14.63,14.63,0,0,0-8.107,4.2l-22.795,22.86H238.286a53.3,53.3,0,0,0-53.223,53.33L185,7407.67A58.2,58.2,0,0,0,243.115,7466h67.908a49.411,49.411,0,0,0,49.344-49.48V7117.08h28.6a3.013,3.013,0,0,0,2.142-.89A3.053,3.053,0,0,0,391.99,7113.81ZM279.341,7248.65a5.642,5.642,0,0,1,7.889-.16c0.018,0.02.04,0.04,0.061,0.06a4.116,4.116,0,0,1,1.2,2.92v16.44H260.133Zm-88.331,75.93a50.519,50.519,0,0,1,50.45-50.59h28.265v28.64a62.383,62.383,0,0,0-59.447,59.36H191.01v-37.41Zm163.3,90.19a45.1,45.1,0,0,1-45.03,45.16H249.129a58.205,58.205,0,0,1-58.119-58.28v-33.58h22.327a3.034,3.034,0,0,0,3.029-3.04,56.218,56.218,0,1,1,10.871,33.3,3.059,3.059,0,0,0-2.49-1.26,3.078,3.078,0,0,0-2.465,4.93,62.364,62.364,0,1,0,53.528-99.35v-28.66h78.5v140.78Zm0-146.86H317.845v-10.84h15.829a3.04,3.04,0,0,0,0-6.08H317.845v-14.32h15.829a3.035,3.035,0,0,0,0-6.07H317.845v-14.32h15.829a3.04,3.04,0,0,0,0-6.08H317.845v-14.32h24.663a3.04,3.04,0,0,0,0-6.08H317.845v-14.32h15.829a3.035,3.035,0,0,0,0-6.07H317.845v-14.33h15.829a3.035,3.035,0,0,0,0-6.07H317.845v-14.32h15.829a3.04,3.04,0,0,0,0-6.08H317.845v-11.53h36.461v150.83ZM272.5,7320.33a44.7,44.7,0,1,0,44.577,44.7A44.643,44.643,0,0,0,272.5,7320.33Zm0,83.07a38.365,38.365,0,1,1,38.26-38.37A38.315,38.315,0,0,1,272.5,7403.4Zm0-50.98a12.615,12.615,0,1,0,12.581,12.61A12.6,12.6,0,0,0,272.5,7352.42Zm0,19.98a7.365,7.365,0,1,1,7.343-7.37A7.357,7.357,0,0,1,272.5,7372.4Zm47.341,70.41c5.736-3.55,18.4-12.84,18.362-25.77a2.931,2.931,0,0,1,2.935-2.93h0.341a2.942,2.942,0,0,1,2.934,3.07c-0.224,5.96-2.956,19.48-21.526,30.66a2.934,2.934,0,0,1-3.872-.79h0A2.943,2.943,0,0,1,319.839,7442.81Z" transform="translate(-185 -7111)"/>
</svg>
