<svg xmlns="http://www.w3.org/2000/svg" display="none">
    <symbol id="instagram" viewBox="0 0 23.03 24.031">
        <path fill-rule="evenodd"
              d="M21.042,0.982 L3.934,0.982 C2.309,0.982 0.983,2.366 0.983,4.067 L0.983,21.919 C0.983,23.613 2.309,24.997 3.934,24.997 L21.042,24.997 C22.667,24.997 23.993,23.613 23.993,21.919 L23.993,4.067 C23.993,2.366 22.667,0.982 21.042,0.982 ZM16.709,4.728 C16.709,4.135 17.176,3.649 17.745,3.649 L20.347,3.649 C20.916,3.649 21.383,4.135 21.383,4.728 L21.383,7.316 C21.383,7.910 20.916,8.397 20.347,8.397 L17.745,8.397 C17.176,8.397 16.709,7.910 16.709,7.316 L16.709,4.728 ZM12.507,8.264 C15.061,8.264 17.134,10.359 17.134,12.940 C17.134,15.518 15.061,17.615 12.507,17.615 C9.957,17.615 7.888,15.518 7.888,12.940 C7.888,10.359 9.957,8.264 12.507,8.264 ZM21.393,21.284 C21.393,21.811 20.982,22.240 20.477,22.240 L4.452,22.240 C3.947,22.240 3.537,21.811 3.537,21.284 L3.537,11.138 L5.652,11.138 C5.460,11.790 5.353,12.484 5.353,13.200 C5.353,17.195 8.561,20.433 12.507,20.433 C16.462,20.433 19.665,17.195 19.665,13.200 C19.665,12.484 19.557,11.790 19.366,11.138 L21.393,11.138 L21.393,21.284 Z"/>
    </symbol>

    <symbol id="whatsapp" viewBox="0 0 19 19">
        <path d="M864.232,2424.76a9.442,9.442,0,0,0-14.89,11.36L848,2441l5.015-1.31a9.486,9.486,0,0,0,4.521,1.15h0a9.457,9.457,0,0,0,9.46-9.42,9.344,9.344,0,0,0-2.768-6.66m-6.692,14.49h0a7.908,7.908,0,0,1-4-1.09l-0.287-.17-2.976.77,0.8-2.88-0.187-.3a7.869,7.869,0,1,1,6.661,3.67m4.313-5.86c-0.237-.12-1.4-0.69-1.615-0.77a0.366,0.366,0,0,0-.532.12c-0.158.23-.611,0.76-0.749,0.92a0.358,0.358,0,0,1-.512.06,6.591,6.591,0,0,1-1.9-1.17,6.916,6.916,0,0,1-1.315-1.63,0.343,0.343,0,0,1,.1-0.48c0.106-.1.236-0.27,0.354-0.41a1.77,1.77,0,0,0,.237-0.39,0.425,0.425,0,0,0-.02-0.41c-0.059-.12-0.532-1.28-0.729-1.75a0.479,0.479,0,0,0-.532-0.41H854.19a0.846,0.846,0,0,0-.63.29,2.651,2.651,0,0,0-.827,1.96,4.6,4.6,0,0,0,.965,2.44,10.587,10.587,0,0,0,4.038,3.55,12.018,12.018,0,0,0,1.347.49,3.264,3.264,0,0,0,1.489.1,2.444,2.444,0,0,0,1.6-1.12,1.963,1.963,0,0,0,.138-1.12,1.091,1.091,0,0,0-.453-0.27"
              transform="translate(-848 -2422)"/>
    </symbol>

    <symbol id="arrow-right" viewBox="0 0 14 9.688">
        <path d="M384.181,452.6h10.28l-3.889,3.871h2.749l4.861-4.84-4.861-4.843h-2.749l3.889,3.875h-10.28V452.6Z"
              transform="translate(-384.188 -446.781)"/>
    </symbol>

</svg>